<?xml version="1.0" encoding="UTF-8" standalone="no"?>
<svg
   width="2600"
   height="650"
   version="1.1"
   viewBox="0 0 687.908 171.977"
   id="svg8"
   sodipodi:docname="skypier_baseline_inline.svg"
   inkscape:version="1.1.2 (0a00cf5339, 2022-02-04)"
   inkscape:export-filename="/home/canuto/Images/Skypier/skypier_baseline_inline.png"
   inkscape:export-xdpi="300"
   inkscape:export-ydpi="300"
   xmlns:inkscape="http://www.inkscape.org/namespaces/inkscape"
   xmlns:sodipodi="http://sodipodi.sourceforge.net/DTD/sodipodi-0.dtd"
   xmlns="http://www.w3.org/2000/svg"
   xmlns:svg="http://www.w3.org/2000/svg">
  <defs
     id="defs12" />
  <sodipodi:namedview
     id="namedview10"
     pagecolor="#505050"
     bordercolor="#eeeeee"
     borderopacity="1"
     inkscape:pageshadow="0"
     inkscape:pageopacity="0"
     inkscape:pagecheckerboard="0"
     showgrid="false"
     inkscape:zoom="0.18625"
     inkscape:cx="287.24832"
     inkscape:cy="348.99328"
     inkscape:window-width="1920"
     inkscape:window-height="1043"
     inkscape:window-x="0"
     inkscape:window-y="110"
     inkscape:window-maximized="1"
     inkscape:current-layer="svg8" />
  <path
     d="m 297.72557,40.307949 c -1.88317,0 -3.80474,0.509639 -5.76632,1.529625 -1.96155,1.020035 -3.60921,2.079466 -4.94306,3.178011 -4.55083,3.766204 -7.10084,9.063557 -7.65013,15.889582 -0.15682,0.706161 -0.23537,1.411246 -0.23537,2.117439 v 2.236105 c 0,1.80464 0.11715,3.649627 0.35228,5.532682 0.31385,1.804643 0.7468,3.609379 1.29599,5.41402 0.62771,1.726228 1.373,3.373855 2.23613,4.943066 0.94152,1.490799 2.07954,2.784048 3.4134,3.882495 2.27542,1.804644 4.78531,3.021186 7.53146,3.648965 2.82471,0.627684 5.45326,0.941898 7.88556,0.941898 h 13.29989 c 1.96154,0 3.64754,0.19542 5.0599,0.587758 1.49078,0.31383 2.62884,0.903875 3.41343,1.766955 0.94153,1.098446 1.49139,2.35334 1.64829,3.765725 0.15682,1.333876 0.23542,2.629022 0.23542,3.884397 0,0.863108 -0.04,1.686918 -0.11848,2.471528 -0.0785,0.78461 -0.31222,1.60851 -0.70453,2.47153 -0.39235,0.94157 -1.02072,1.99917 -1.88385,3.17612 -0.86306,1.09844 -1.88239,1.64828 -3.05932,1.64828 h -37.89843 c -0.78461,0 -1.17734,0.39274 -1.17734,1.17735 v 12.94576 c 0,0.78461 0.39274,1.17733 1.17734,1.17733 h 42.84151 c 1.72611,0 3.53095,-0.50962 5.414,-1.52963 1.96155,-1.09843 3.60918,-2.19632 4.94307,-3.29477 4.3939,-3.84472 6.90378,-9.33751 7.53145,-16.4772 0.15681,-0.62772 0.23542,-1.29448 0.23542,-2.00059 v -2.47152 c 0,-1.804647 -0.11715,-3.687891 -0.35232,-5.649547 -0.23538,-1.961562 -0.66831,-3.8449 -1.29598,-5.649544 -0.54921,-1.804642 -1.29445,-3.492516 -2.23612,-5.061729 -0.86308,-1.569213 -1.96089,-2.902711 -3.29475,-4.00116 -2.27543,-1.883054 -4.74697,-3.138045 -7.41462,-3.765727 -2.66774,-0.706176 -5.21781,-1.058672 -7.6501,-1.058672 h -13.1812 c -1.80464,0 -3.49251,-0.07861 -5.06172,-0.23549 -1.49082,-0.156922 -2.66721,-0.666539 -3.53032,-1.529626 -0.94158,-1.020038 -1.49138,-2.198225 -1.64831,-3.532101 -0.15681,-1.33388 -0.23538,-2.629027 -0.23538,-3.884396 0,-0.784645 0.0401,-1.568265 0.1186,-2.352871 0.0785,-0.784605 0.31225,-1.57016 0.70456,-2.354767 0.39232,-0.863086 1.02071,-1.765433 1.88384,-2.707056 0.94154,-1.020039 1.9608,-1.529627 3.05931,-1.529627 h 34.01386 c 0.78464,0 1.17731,-0.392737 1.17731,-1.177338 V 41.485447 c 0,-0.784624 -0.39272,-1.177337 -1.17731,-1.177337 h -38.95687 z m 54.96326,0 c -0.78468,0 -1.17735,0.392749 -1.17735,1.177337 v 69.793404 0.23547 12.00406 c 0,0.78461 0.39272,1.17733 1.17735,1.17733 h 12.00499 c 0.78462,0 1.17549,-0.39274 1.17549,-1.17733 V 41.486285 c 0,-0.78463 -0.39084,-1.177341 -1.17549,-1.177341 h -12.00499 z m 190.54585,0 c -0.78463,0 -1.17735,0.392749 -1.17735,1.177337 v 12.004997 c 0,0.784631 0.39276,1.175534 1.17735,1.175534 h 12.005 c 0.7846,0 1.17553,-0.39088 1.17553,-1.175534 V 41.485286 c 0,-0.784623 -0.39093,-1.177337 -1.17553,-1.177337 z M 391.41123,63.377173 c -0.86308,0 -1.5298,0.314204 -2.00057,0.941899 l -19.06598,21.65475 c -0.62772,0.784623 -1.13918,1.648669 -1.53151,2.590197 -0.39232,0.863091 -0.58778,1.608323 -0.58778,2.236103 0,0.863087 0.19517,1.765436 0.58778,2.707057 0.39231,0.863076 0.86358,1.646677 1.41286,2.352871 l 20.47853,27.77686 c 0.54923,0.70617 1.21599,1.05867 2.00059,1.05867 h 15.1833 c 0.6277,0 0.74459,-0.27398 0.35229,-0.82323 L 384.93796,92.212803 c -0.15681,-0.156923 -0.3542,-0.392562 -0.58959,-0.706422 -0.15682,-0.313851 -0.23539,-0.549501 -0.23539,-0.706424 0,-0.156922 0.0786,-0.354201 0.23539,-0.589604 0.23539,-0.235364 0.43265,-0.430797 0.58959,-0.587756 l 22.00886,-25.069426 c 0.31384,-0.313859 0.43071,-0.587844 0.3523,-0.823233 0,-0.235392 -0.19516,-0.352281 -0.58779,-0.352291 h -15.30005 z m 18.59511,0 c -0.54923,0 -0.82323,0.273998 -0.82323,0.823235 0,0.235368 0.0383,0.392462 0.1169,0.470951 l 19.06788,56.139451 c 0.39232,1.17696 0.9403,2.04092 1.64646,2.5902 0.78464,0.47077 1.52996,0.78497 2.23614,0.9419 0.70615,0.15691 1.33456,0.23547 1.88382,0.23547 0.54922,0 0.8232,0.0786 0.8232,0.23548 v 0.1169 l -8.23783,21.7734 v 0.35412 c 0,0.31387 0.19516,0.47098 0.58776,0.47098 h 14.00615 c 1.02003,0 1.64838,-0.31421 1.88382,-0.94191 l 31.42412,-81.915136 c 0.0785,-0.156923 0.1186,-0.314013 0.1186,-0.470952 0,-0.549234 -0.39277,-0.823225 -1.17738,-0.823236 h -14.12293 c -0.70616,0 -1.13907,0.235658 -1.29602,0.706433 l -14.94595,39.425861 c -0.0786,0.23536 -0.23565,0.6281 -0.47095,1.17733 -0.15681,0.47079 -0.3542,0.98046 -0.58962,1.52963 -0.23539,0.47079 -0.5094,0.90371 -0.82322,1.296 -0.31387,0.39232 -0.62805,0.58777 -0.94189,0.58777 -0.31385,0 -0.62619,-0.19545 -0.94003,-0.58777 -0.31387,-0.47076 -0.62808,-0.94204 -0.9419,-1.41285 -0.23539,-0.54923 -0.43268,-1.05887 -0.58961,-1.52963 -0.15683,-0.54923 -0.27381,-0.94197 -0.35228,-1.17734 L 425.07144,64.201078 c -0.23542,-0.549232 -0.70485,-0.823232 -1.41097,-0.823232 h -13.65396 z m 72.38127,0 c -0.78464,0 -1.17556,0.39088 -1.17556,1.175533 V 145.6448 c 0,0.78463 0.39088,1.17735 1.17556,1.17735 h 12.00498 c 0.7846,0 1.17734,-0.39275 1.17734,-1.17735 v -19.77225 c 0,-0.78463 0.39271,-1.17734 1.17731,-1.17734 h 12.35815 c 3.92311,0 7.49247,-0.62654 10.70919,-1.88191 3.29543,-1.25537 6.08109,-3.17886 8.35651,-5.76821 2.3539,-2.58925 4.15863,-5.8846 5.414,-9.88614 1.3339,-4.00163 2.00059,-8.787483 2.00059,-14.358335 0,-3.7662 -0.39273,-7.414123 -1.17736,-10.944616 -0.78459,-3.530868 -2.11804,-6.670909 -4.00111,-9.417075 -1.80466,-2.746172 -4.27621,-4.941835 -7.41471,-6.589554 -3.06,-1.64772 -6.90519,-2.471534 -11.53414,-2.471534 h -29.07075 z m 60.84898,0 c -0.78465,0 -1.17737,0.39088 -1.17737,1.175533 v 58.964604 c 0,0.78462 0.39278,1.17734 1.17737,1.17734 h 12.00498 c 0.78463,0 1.17553,-0.39276 1.17553,-1.17734 V 64.552706 c 0,-0.784646 -0.39088,-1.175533 -1.17553,-1.175533 z m 52.60893,0 c -3.92311,0 -7.84681,0.509648 -11.76958,1.529626 -3.84467,0.941562 -7.33544,2.627598 -10.47377,5.05993 -3.05997,2.432325 -5.57169,5.727671 -7.53334,9.886129 -1.88316,4.080047 -2.8238,9.258734 -2.8238,15.535489 0,5.178583 0.54984,9.611783 1.64827,13.299853 1.17699,3.6877 3.09855,6.74922 5.76632,9.18165 2.74618,2.35391 6.31547,4.08014 10.70918,5.17859 4.47242,1.09845 10.00577,1.6465 16.59586,1.6465 h 19.88906 c 0.78461,0 1.17735,-0.39276 1.17735,-1.17735 v -12.00404 c 0,-0.78463 -0.39277,-1.17735 -1.17735,-1.17735 h -28.01038 c -1.64776,0 -3.21686,-0.19544 -4.7077,-0.58776 -1.49077,-0.47076 -2.78591,-1.06084 -3.88436,-1.76694 -1.02001,-0.78461 -1.84385,-1.64677 -2.47153,-2.5884 -0.62768,-1.02003 -0.94189,-2.11781 -0.94189,-3.29477 0,-0.78462 0.39274,-1.17734 1.17733,-1.17734 h 43.54587 c 0.78463,0 1.17735,-0.39272 1.17735,-1.177331 V 87.50228 c 0,-3.687792 -0.54984,-7.021395 -1.64831,-10.002898 -1.02,-2.981599 -2.66766,-5.493287 -4.94305,-7.53336 -2.2754,-2.118481 -5.17805,-3.725952 -8.70877,-4.824403 -3.53088,-1.176953 -7.72855,-1.765148 -12.59362,-1.765148 z m 51.78589,0 c -2.11845,0 -4.11865,0.431093 -6.00182,1.294198 -1.88305,0.784617 -3.53075,1.882484 -4.94305,3.294778 -1.41233,1.412291 -2.55035,3.060007 -3.41345,4.943061 -0.78464,1.883151 -1.17734,3.845001 -1.17734,5.884975 v 44.723045 c 0,0.7846 0.39276,1.17732 1.17734,1.17732 h 13.1812 c 0.78461,0 1.17733,-0.39275 1.17733,-1.17732 V 82.9142 c 0,-0.470766 0.11714,-0.980449 0.35227,-1.529629 0.23538,-0.627711 0.54957,-1.177526 0.94192,-1.648287 0.47074,-0.549254 0.98043,-1.02051 1.52961,-1.41286 0.54923,-0.392313 1.17764,-0.587768 1.88382,-0.587768 h 11.2987 c 0.78462,10e-6 1.17553,-0.39274 1.17553,-1.177337 V 64.553324 c 0,-0.784646 -0.39089,-1.175535 -1.17553,-1.175535 h -16.00632 z m -52.84439,12.829003 c 4.94321,0 8.78838,0.902373 11.53417,2.707053 2.74618,1.726227 4.11801,4.078907 4.11801,7.060505 0,0.784629 -0.39273,1.177336 -1.17735,1.177336 h -30.24601 c -0.78462,0 -1.17733,-0.392738 -1.17733,-1.177336 0,-1.490796 0.58817,-2.824297 1.76513,-4.001158 1.17698,-1.255367 2.62915,-2.274644 4.35535,-3.059347 1.80465,-0.863076 3.64775,-1.529815 5.5309,-2.000578 1.96157,-0.470793 3.72791,-0.706423 5.29728,-0.706423 z m -98.03539,1.529622 h 15.53546 c 1.17696,0 2.3131,0.39275 3.41163,1.177336 1.17698,0.706166 2.19808,1.608514 3.06118,2.707058 0.94156,1.098449 1.68683,2.353437 2.23609,3.765727 0.62768,1.412295 0.94192,2.745792 0.94192,4.001163 v 9.062982 c 0,1.333875 -0.31424,2.707536 -0.94192,4.119826 -0.54924,1.41229 -1.29448,2.70564 -2.23609,3.88249 -0.86309,1.09844 -1.8842,2.04102 -3.06118,2.82572 -1.09844,0.70617 -2.23467,1.05867 -3.41163,1.05867 h -15.53546 c -0.78462,0 -1.17735,-0.39273 -1.17735,-1.17733 V 78.913419 c 0,-0.784624 0.39275,-1.177336 1.17735,-1.177336 z"
     stroke-width="7.35593"
     id="path2"
     style="opacity:0.34099;fill:#ffffff" />
  <path
     d="m 133.03216,13.626613 c -23.6176,0.0581 -38.809786,10.609893 -47.030875,21.428121 -1.799306,2.367567 -4.387274,6.050476 -5.625246,8.308872 5.405051,-0.434171 13.801493,-0.584464 18.63886,0.965166 5.864531,-7.203873 15.889601,-14.635997 34.057531,-14.680868 15.8811,-0.03906 24.14846,7.306033 29.62918,15.156933 5.42515,-1.357894 12.40096,-2.23688 17.59573,-1.642794 -1.21966,-2.420657 -2.67227,-4.96551 -4.4585,-7.524582 C 168.30866,24.84848 154.28453,13.574331 133.0347,13.626413 Z M 86.886694,48.416007 c -2.94569,0.05448 -5.851918,0.368368 -8.769963,0.879881 l 0.001,-0.0061 c -6.21e-4,0.0016 -0.0015,0.0039 -0.0022,0.0061 -12.578426,2.002888 -22.780271,7.871532 -29.771403,16.033731 -7.525583,8.785587 -11.25011,19.157502 -11.844056,30.468512 4.994953,3.485349 10.170391,5.894189 15.995066,8.029589 -0.07652,-0.74631 -0.158844,-1.49176 -0.190503,-2.24117 C 51.89519,91.875886 54.746288,82.480527 60.512469,75.749408 66.27865,69.01789 74.86973,64.458431 88.216583,64.560395 c 13.372087,0.102172 19.099407,4.135984 23.872007,10.911573 1.07517,1.526149 2.03284,3.293043 2.94709,5.164421 -1.8e-4,1.81e-4 -8.8e-4,-1.59e-4 -0.001,0 1.6e-4,2.82e-4 -1.7e-4,7.81e-4 0,0.001 3.03924,5.289823 4.50898,10.863695 5.88798,16.716816 1.5e-4,-1.8e-4 8.3e-4,1.61e-4 0.001,0 0.67026,2.31609 1.38154,4.405415 2.04965,6.835085 2.37819,8.64957 4.91063,17.87347 9.45727,26.36597 -2.2e-4,1.9e-4 -8.3e-4,-1.6e-4 -0.001,0 1.4e-4,2.9e-4 -1.2e-4,7.8e-4 0,0.001 2.53723,4.98654 5.82347,8.99593 9.49151,12.50691 8.13154,7.93845 19.71478,13.49489 35.44646,14.09264 16.69999,0.63465 30.3363,-6.29081 38.93199,-16.78833 7.12233,-8.69865 10.58082,-18.75406 11.65955,-29.87556 -5.05176,-2.80496 -8.52624,-4.23826 -15.27131,-5.68045 -0.34199,9.55802 -3.40604,18.84321 -8.78116,25.40845 -5.74216,7.01277 -13.69585,11.39194 -25.92731,10.92721 -11.97709,-0.4552 -18.91993,-3.59854 -24.04229,-8.4118 h -10e-4 c -4.78831,-4.19869 -6.87702,-8.96347 -9.11239,-13.69721 -2.48095,-5.69727 -4.50097,-12.17298 -6.40359,-19.092598 -1.36885,-4.978327 -2.79566,-10.119512 -4.47193,-15.187982 h -0.001 c -1.80125,-5.363541 -4.29963,-10.351483 -6.88176,-15.294554 h 0.001 v -0.001 c -0.64319,-1.066226 -1.15619,-2.188212 -1.88187,-3.218252 -6.1091,-8.671408 -15.91772,-15.262302 -29.290605,-17.150507 -3.075896,-0.524477 -6.06125,-0.729403 -9.00694,-0.674937 z m 91.619886,0.11178 c -4.25038,-0.0018 -8.50235,0.26761 -12.76052,1.320884 -14.62448,2.727945 -25.80509,9.22529 -35.20806,16.741658 l 7.40659,14.539952 c 10.42801,-9.127533 21.7326,-15.840623 40.16995,-16.574991 0.7469,-0.02963 1.47891,-0.04046 2.1945,-0.03306 10.73448,0.110788 18.00687,4.340512 23.41329,10.929203 0.98709,1.203178 2.14661,3.430061 2.95228,4.822078 6.80819,-0.06543 12.22219,0.831167 18.43077,2.218332 C 223.08456,76.684 220.04453,70.087296 216.10905,65.290259 208.45826,55.96461 196.8642,49.446833 182.75794,48.601285 c -1.4165,-0.04166 -2.83351,-0.07293 -4.25037,-0.07353 z M 19.946108,83.010694 5.8969379,90.702941 c 0,0 5.9803221,10.979279 17.8213741,20.430529 4.434264,3.53904 10.122119,6.63636 16.384488,9.19023 0,0 6.826671,2.87639 10.377527,3.58892 3.55065,0.71249 9.721278,1.08691 9.721278,1.08691 l 0.0061,0.006 c -0.0015,-0.002 -0.0022,-0.004 -0.0039,-0.006 5.553243,0.26336 11.429801,-0.10379 17.711603,-1.54136 17.61982,-4.03241 28.883532,-13.1633 39.286102,-23.02581 -1.33303,-5.583883 -2.7097,-11.275602 -5.53479,-16.457452 -10.9823,10.848475 -21.331975,20.208172 -37.327443,23.868002 -8.196249,1.87577 -15.118272,1.50217 -21.27187,0.11699 -3.01e-4,-0.002 -7.23e-4,-0.004 -0.001,-0.006 v 0.006 C 46.724322,106.86853 41.481775,104.24578 36.372239,100.40527 35.511409,99.788462 34.515944,99.251009 33.711803,98.609247 24.491523,91.250324 19.947287,83.010408 19.947287,83.010408 Z m 184.187282,1.535143 c -4.9058,0.126979 -10.07846,0.737134 -15.686,2.271218 -19.75024,5.403001 -30.63076,17.796335 -40.42636,28.697685 1.85653,5.34351 5.09412,9.917 8.7203,14.27394 11.22766,-12.12331 19.25605,-22.95255 35.93722,-27.51582 4.6039,-1.25946 8.7902,-1.92404 12.60527,-2.12518 0.335,-0.018 0.66414,-0.0271 0.98752,-0.0311 2.26362,-0.0278 4.26157,0.25443 6.30003,0.48964 8.14278,0.8151 12.22967,3.0126 15.98285,5.32388 0.73303,0.44495 1.60672,0.82343 2.28463,1.28773 8.01117,5.48734 11.49871,11.78016 11.49871,11.78016 l 14.0067,-7.7854 c 0,0 -5.3497,-9.6105 -16.45179,-17.214809 -3.61235,-2.474339 -8.1558,-4.536622 -13.10307,-6.27519 -5.80465,-1.555338 -11.74648,-2.615163 -17.83179,-3.158228 -3.5e-4,0 -6.8e-4,2e-5 -10e-4,0 -1.58189,-0.04867 -3.18788,-0.05989 -4.82286,-0.01798 z M 42.271657,126.6068 c 8.616318,16.39391 26.043467,29.77941 49.316522,30.54864 20.412501,0.67472 34.891561,-4.23855 46.037301,-11.20985 -3.13839,-3.78543 -6.28581,-7.55342 -8.55762,-13.03575 -8.43564,5.44387 -19.23944,8.82104 -36.946833,8.23571 -11.915571,-0.39386 -21.844781,-5.2089 -28.289041,-11.45543 -7.452467,0.17868 -14.755895,-0.28471 -21.560329,-3.08271 z"
     color="#000000"
     fill="#55ddff"
     style="stroke-width:2.00318;-inkscape-stroke:none;paint-order:stroke fill markers"
     id="path6"
     sodipodi:nodetypes="cccccccccccccccccccsccccccccccccccccccccscccccscccsccccccccccssccccsccccccccccccccccccscccccccccsccccsccsccc" />
</svg>
