<svg xmlns="http://www.w3.org/2000/svg" width="1200" height="350" viewBox="0 0 317.5 92.603"><path fill="#fff" d="M145.024 31.198c-.693 0-1.4.187-2.122.562-.721.376-1.328.765-1.819 1.17-1.674 1.385-2.612 3.335-2.814 5.846-.058.26-.087.52-.087.78v.822c0 .664.043 1.343.13 2.036.115.664.274 1.328.476 1.992.231.635.506 1.242.823 1.819a5.96 5.96 0 0 0 1.256 1.429 6.882 6.882 0 0 0 2.771 1.342c1.04.231 2.007.347 2.902.347h4.894c.722 0 1.342.072 1.862.216.548.116.967.333 1.256.65.346.405.548.866.606 1.386.058.49.087.967.087 1.43 0 .317-.015.62-.044.909a2.902 2.902 0 0 1-.26.909c-.144.346-.375.736-.692 1.169-.318.404-.693.606-1.126.606h-13.945c-.289 0-.433.145-.433.433v4.764c0 .289.144.433.433.433h15.763c.636 0 1.3-.187 1.993-.563a12.404 12.404 0 0 0 1.818-1.212c1.617-1.415 2.54-3.436 2.772-6.063.057-.231.086-.476.086-.736v-.91c0-.664-.043-1.356-.13-2.078a9.9 9.9 0 0 0-.476-2.08 8.303 8.303 0 0 0-.823-1.862 5.017 5.017 0 0 0-1.212-1.472c-.838-.693-1.747-1.154-2.729-1.385a10.99 10.99 0 0 0-2.815-.39h-4.85c-.664 0-1.285-.029-1.862-.087-.549-.057-.982-.245-1.3-.562a2.267 2.267 0 0 1-.606-1.3 12.41 12.41 0 0 1-.086-1.43c0-.288.014-.577.043-.865.03-.289.115-.578.26-.867.144-.317.375-.65.693-.996.346-.375.721-.563 1.125-.563h12.516c.289 0 .433-.144.433-.433v-4.763c0-.289-.144-.433-.433-.433h-14.334zm20.224 0c-.288 0-.433.144-.433.433v30.184c0 .289.145.433.433.433h4.418c.288 0 .432-.144.432-.433V31.63c0-.289-.144-.433-.432-.433h-4.418zm70.113 0c-.289 0-.433.144-.433.433v4.417c0 .289.144.433.433.433h4.417c.289 0 .433-.144.433-.433v-4.417c0-.289-.144-.433-.433-.433zm-55.865 8.488c-.318 0-.563.115-.736.346L171.744 48c-.23.289-.419.607-.563.953-.144.318-.216.592-.216.823 0 .318.072.65.216.996.144.318.318.606.52.866l7.535 10.221c.202.26.447.39.736.39h5.587c.23 0 .274-.101.13-.303l-8.575-11.65a2.537 2.537 0 0 1-.217-.26.666.666 0 0 1-.087-.26c0-.058.03-.13.087-.217l.217-.216 8.098-9.225c.116-.115.159-.216.13-.303 0-.087-.072-.13-.216-.13h-5.63zm6.842 0c-.202 0-.303.1-.303.303 0 .086.014.144.043.173l7.016 20.657c.145.433.346.75.606.953.289.173.563.289.823.347.26.057.491.086.693.086.202 0 .303.03.303.087v.043l-3.031 8.012v.13c0 .115.072.173.216.173h5.154c.375 0 .606-.116.693-.346l11.562-30.142a.385.385 0 0 0 .044-.173c0-.202-.144-.303-.433-.303h-5.197c-.26 0-.419.087-.477.26l-5.5 14.507a6.53 6.53 0 0 1-.172.433c-.058.173-.13.361-.217.563a2.676 2.676 0 0 1-.303.477c-.116.144-.231.216-.347.216-.115 0-.23-.072-.346-.216l-.346-.52a7.318 7.318 0 0 1-.217-.563c-.058-.202-.1-.346-.13-.433l-4.59-14.421c-.087-.203-.26-.303-.52-.303h-5.024zm26.633 0c-.289 0-.432.144-.432.432v29.838c0 .29.143.434.432.434h4.417c.29 0 .434-.145.434-.434v-7.275c0-.289.144-.433.433-.433h4.547c1.444 0 2.757-.23 3.94-.693a7.655 7.655 0 0 0 3.075-2.122c.867-.953 1.53-2.165 1.993-3.638.49-1.472.736-3.233.736-5.283a18.51 18.51 0 0 0-.433-4.027c-.29-1.3-.78-2.455-1.473-3.465-.664-1.01-1.573-1.819-2.728-2.425-1.126-.606-2.54-.91-4.244-.91h-10.696zm22.39 0c-.289 0-.433.144-.433.432v21.697c0 .289.144.433.433.433h4.417c.289 0 .433-.144.433-.433V40.118c0-.288-.144-.432-.433-.432zm19.358 0c-1.444 0-2.888.187-4.331.563-1.415.346-2.7.966-3.854 1.861-1.126.895-2.05 2.108-2.772 3.638-.693 1.501-1.039 3.407-1.039 5.717 0 1.905.202 3.536.606 4.893.434 1.357 1.14 2.484 2.122 3.379 1.01.866 2.324 1.501 3.94 1.905 1.646.404 3.682.606 6.107.606h7.319c.288 0 .433-.144.433-.433v-4.417c0-.289-.145-.433-.433-.433H252.51a6.78 6.78 0 0 1-1.732-.217 5.943 5.943 0 0 1-1.43-.65 4.028 4.028 0 0 1-.909-.952 2.272 2.272 0 0 1-.347-1.212c0-.29.145-.434.434-.434h16.023c.289 0 .433-.144.433-.433v-4.504c0-1.357-.202-2.584-.606-3.68a6.466 6.466 0 0 0-1.82-2.773c-.837-.78-1.905-1.37-3.204-1.775-1.299-.433-2.844-.65-4.634-.65zm19.055 0c-.78 0-1.516.158-2.209.476a5.592 5.592 0 0 0-1.818 1.212 6.202 6.202 0 0 0-1.256 1.82 5.576 5.576 0 0 0-.434 2.165v16.455c0 .289.145.433.434.433h4.85c.288 0 .433-.144.433-.433v-14.94c0-.173.043-.361.13-.563.086-.231.202-.433.346-.607.173-.202.36-.375.563-.52.202-.144.433-.216.693-.216h4.158c.288 0 .432-.144.432-.433v-4.417c0-.289-.144-.433-.432-.433h-5.89zm-19.444 4.72c1.819 0 3.233.332 4.244.996 1.01.635 1.515 1.501 1.515 2.598 0 .289-.145.433-.433.433h-11.13c-.288 0-.432-.144-.432-.433 0-.548.216-1.039.65-1.472a5.004 5.004 0 0 1 1.602-1.126 10.75 10.75 0 0 1 2.035-.736c.722-.173 1.372-.26 1.949-.26zm-36.073.563h5.716c.433 0 .851.145 1.256.433.433.26.808.592 1.126.996a4.8 4.8 0 0 1 .823 1.386c.23.52.346 1.01.346 1.472v3.335c0 .49-.115.996-.346 1.516-.202.52-.477.995-.823 1.429a4.831 4.831 0 0 1-1.126 1.04 2.29 2.29 0 0 1-1.256.389h-5.716c-.289 0-.433-.145-.433-.433v-11.13c0-.288.144-.433.433-.433z" aria-label="Skypier" opacity=".341"/><path fill="#5df" d="M78.827 16.039c-9.903.024-16.273 4.449-19.72 8.985a23.352 23.352 0 0 0-1.887 2.925 28.822 28.822 0 0 1 1.982-.084c2.081-.006 3.966.24 5.658.736 2.459-3.02 6.366-5.826 13.984-5.844 6.659-.017 10.125 3.063 12.423 6.355l.04.062c2.37-.451 4.699-.77 6.926-.761.138 0 .274.007.411.01a25.652 25.652 0 0 0-1.869-3.155c-3.157-4.524-9.037-9.25-17.947-9.229zM59.479 30.626a23.768 23.768 0 0 0-3.677.369v-.003.003c-5.275.84-9.552 3.3-12.484 6.723-3.155 3.683-4.717 8.032-4.966 12.775 2.095 1.461 4.265 2.471 6.707 3.366-.032-.312-.067-.625-.08-.94-.172-4.07 1.024-8.01 3.442-10.832 2.417-2.823 6.02-4.734 11.616-4.692 5.606.043 8.008 1.735 10.009 4.575.45.64.852 1.381 1.235 2.166 1.274 2.218 1.89 4.555 2.469 7.01.281.97.58 1.847.86 2.865.997 3.627 2.058 7.495 3.965 11.055 1.063 2.092 2.441 3.773 3.979 5.245 3.41 3.328 8.266 5.658 14.862 5.909 7.002.266 12.72-2.638 16.324-7.04 2.986-3.647 4.436-7.863 4.889-12.526-1.946-.986-3.874-2.156-6.403-2.382-.144 4.007-1.428 7.9-3.682 10.654-2.408 2.94-5.743 4.776-10.871 4.581-5.022-.19-7.933-1.508-10.081-3.527-2.008-1.76-2.884-3.758-3.821-5.743-1.04-2.388-1.888-5.104-2.685-8.005-.574-2.087-1.173-4.243-1.875-6.368-.756-2.25-1.804-4.34-2.886-6.413-.27-.448-.485-.918-.789-1.35-2.562-3.636-6.674-6.4-12.281-7.191a20.128 20.128 0 0 0-3.777-.283zm38.415.047c-1.782 0-3.565.112-5.35.554-6.132 1.144-10.82 3.868-14.762 7.02l3.105 6.096C85.26 40.516 90 37.7 97.73 37.393c.313-.012.62-.017.92-.014 4.501.047 7.55 1.82 9.817 4.583.414.504.9 1.438 1.238 2.022 2.53.116 5.04.386 7.728.93-.847-2.435-2.122-5.201-3.772-7.213-3.208-3.91-8.07-6.643-13.984-6.997a61.539 61.539 0 0 0-1.782-.031zM31.411 45.13l-5.89 3.225s2.507 4.604 7.472 8.566c1.859 1.484 4.244 2.783 6.87 3.854 0 0 2.862 1.206 4.35 1.505 1.49.298 4.077.455 4.077.455l.002.003s0-.002-.002-.003a27.17 27.17 0 0 0 7.427-.646c7.388-1.69 12.477-5.668 16.839-9.803-.56-2.342-1.503-4.58-2.687-6.752-4.605 4.549-8.945 8.473-15.651 10.008-3.437.787-6.34.63-8.92.05v-.003.002c-2.659-.457-4.857-1.557-7-3.167-.36-.259-.778-.484-1.115-.753-3.866-3.086-5.771-6.54-5.771-6.54zm77.228.644a27.224 27.224 0 0 0-6.577.952c-8.281 2.265-12.843 7.462-16.95 12.033.778 2.24 2.136 4.158 3.656 5.985 4.708-5.083 8.074-9.624 15.068-11.537 1.93-.528 3.686-.807 5.286-.891.14-.008.278-.012.414-.013.949-.012 1.786.106 2.641.205 3.414.342 5.128 1.263 6.702 2.232.307.187.673.346.958.54 3.359 2.301 4.821 4.94 4.821 4.94l5.873-3.265s-2.243-4.03-6.898-7.218c-1.515-1.037-3.42-1.902-5.494-2.63a43.912 43.912 0 0 0-7.477-1.325 35.873 35.873 0 0 0-2.023-.008zM40.772 63.41c3.613 6.873 10.92 12.486 20.678 12.809 8.559.282 14.63-1.778 19.303-4.7-1.316-1.588-2.636-3.168-3.588-5.466-3.537 2.282-8.067 3.698-15.491 3.453-4.996-.165-9.16-2.184-11.861-4.803-3.125.074-6.187-.12-9.04-1.293z" color="#000" style="-inkscape-stroke:none;paint-order:stroke fill markers"/></svg>